<?xml version="1.0" encoding="UTF-8" standalone="no"?>
<svg
   viewBox="0 0 34.01 45.35"
   version="1.1"
   id="svg14"
   sodipodi:docname="icon_horse.svg"
   inkscape:version="1.1.1 (3bf5ae0d25, 2021-09-20)"
   xmlns:inkscape="http://www.inkscape.org/namespaces/inkscape"
   xmlns:sodipodi="http://sodipodi.sourceforge.net/DTD/sodipodi-0.dtd"
   xmlns="http://www.w3.org/2000/svg"
   xmlns:svg="http://www.w3.org/2000/svg">
  <sodipodi:namedview
     id="namedview16"
     pagecolor="#ffffff"
     bordercolor="#666666"
     borderopacity="1.0"
     inkscape:pageshadow="2"
     inkscape:pageopacity="0.0"
     inkscape:pagecheckerboard="0"
     showgrid="false"
     inkscape:zoom="9.8787214"
     inkscape:cx="16.955636"
     inkscape:cy="15.487834"
     inkscape:window-width="1366"
     inkscape:window-height="717"
     inkscape:window-x="0"
     inkscape:window-y="27"
     inkscape:window-maximized="1"
     inkscape:current-layer="svg14" />
  <defs
     id="defs4">
    <style
       id="style2">.cls-1{fill:#425d72;}</style>
  </defs>
  <title
     id="title6">Main-Menu-1-3</title>
  <g
     id="Layer_2"
     data-name="Layer 2"
     style="fill:#ffffff">
    <g
       id="ICONS"
       style="fill:#ffffff">
      <path
         class="cls-1"
         d="M33.24,14.39c-3.78-3-7.5-5.93-11.27-8.9A4.86,4.86,0,0,1,19.88.58c.05-.52-.23-.69-.8-.52a4.79,4.79,0,0,0-3,2.35,3.83,3.83,0,0,1-3.9,2.28C9.65,4.57,8.08,6,6.72,7.89A19.07,19.07,0,0,0,4,14.76a39.29,39.29,0,0,0-1,7.77c-.12,2-.06,3.95-.12,5.94V34h25V30a3.82,3.82,0,0,0-1.05-2.93c-1.24-1.23-2.57-2.39-2.57-2.39a10.61,10.61,0,0,1-1.72-1.76l-4.6-6,.85.69a5.18,5.18,0,0,0,4.68,1.08,3.81,3.81,0,0,1,2.94.46,17.73,17.73,0,0,0,1.61.91,3.14,3.14,0,0,0,3.87-.77l1.75-2.08A2,2,0,0,0,33.24,14.39Z"
         id="path8"
         style="fill:#ffffff" />
      <path
         class="cls-1"
         d="M31,43.3,28.2,37.63a1.43,1.43,0,0,0-1.27-.78H4.25A1.44,1.44,0,0,0,3,37.63L.15,43.3a1.41,1.41,0,0,0,1.27,2.05H29.76A1.41,1.41,0,0,0,31,43.3Z"
         id="path10"
         style="fill:#ffffff" />
    </g>
  </g>
</svg>
